<mxfile host="app.diagrams.net" modified="2024-05-12T19:40:06.003Z" agent="Mozilla/5.0 (Windows NT 10.0; Win64; x64) AppleWebKit/537.36 (KHTML, like Gecko) Chrome/124.0.0.0 Safari/537.36 Edg/124.0.0.0" etag="qB24UIWtMkLCqW2NTbfh" version="24.4.0" type="device">
  <diagram name="Page-1" id="iczQVUxXjMVZCT32ky1s">
    <mxGraphModel dx="1386" dy="793" grid="1" gridSize="10" guides="1" tooltips="1" connect="1" arrows="1" fold="1" page="1" pageScale="1" pageWidth="850" pageHeight="1100" math="0" shadow="0">
      <root>
        <mxCell id="0" />
        <mxCell id="1" parent="0" />
        <mxCell id="7ImLv9Qj8_fC42LgSLlD-3" value="" style="edgeStyle=orthogonalEdgeStyle;rounded=0;orthogonalLoop=1;jettySize=auto;html=1;" edge="1" parent="1" source="7ImLv9Qj8_fC42LgSLlD-1" target="7ImLv9Qj8_fC42LgSLlD-2">
          <mxGeometry relative="1" as="geometry" />
        </mxCell>
        <mxCell id="7ImLv9Qj8_fC42LgSLlD-1" value="User/Administrator" style="rounded=1;whiteSpace=wrap;html=1;" vertex="1" parent="1">
          <mxGeometry x="300" y="140" width="120" height="60" as="geometry" />
        </mxCell>
        <mxCell id="7ImLv9Qj8_fC42LgSLlD-7" value="" style="edgeStyle=orthogonalEdgeStyle;rounded=0;orthogonalLoop=1;jettySize=auto;html=1;" edge="1" parent="1" source="7ImLv9Qj8_fC42LgSLlD-2" target="7ImLv9Qj8_fC42LgSLlD-6">
          <mxGeometry relative="1" as="geometry" />
        </mxCell>
        <mxCell id="7ImLv9Qj8_fC42LgSLlD-2" value="Login" style="rounded=1;whiteSpace=wrap;html=1;" vertex="1" parent="1">
          <mxGeometry x="300" y="280" width="120" height="60" as="geometry" />
        </mxCell>
        <mxCell id="7ImLv9Qj8_fC42LgSLlD-9" value="" style="edgeStyle=orthogonalEdgeStyle;rounded=0;orthogonalLoop=1;jettySize=auto;html=1;" edge="1" parent="1" source="7ImLv9Qj8_fC42LgSLlD-4" target="7ImLv9Qj8_fC42LgSLlD-8">
          <mxGeometry relative="1" as="geometry" />
        </mxCell>
        <mxCell id="7ImLv9Qj8_fC42LgSLlD-4" value="Search/Querry" style="rounded=1;whiteSpace=wrap;html=1;" vertex="1" parent="1">
          <mxGeometry x="540" y="590" width="120" height="60" as="geometry" />
        </mxCell>
        <mxCell id="7ImLv9Qj8_fC42LgSLlD-11" value="" style="edgeStyle=orthogonalEdgeStyle;rounded=0;orthogonalLoop=1;jettySize=auto;html=1;" edge="1" parent="1" source="7ImLv9Qj8_fC42LgSLlD-6" target="7ImLv9Qj8_fC42LgSLlD-10">
          <mxGeometry relative="1" as="geometry" />
        </mxCell>
        <mxCell id="7ImLv9Qj8_fC42LgSLlD-6" value="User authentication" style="whiteSpace=wrap;html=1;rounded=1;" vertex="1" parent="1">
          <mxGeometry x="310" y="370" width="120" height="60" as="geometry" />
        </mxCell>
        <mxCell id="7ImLv9Qj8_fC42LgSLlD-13" value="" style="edgeStyle=orthogonalEdgeStyle;rounded=0;orthogonalLoop=1;jettySize=auto;html=1;" edge="1" parent="1" source="7ImLv9Qj8_fC42LgSLlD-8" target="7ImLv9Qj8_fC42LgSLlD-12">
          <mxGeometry relative="1" as="geometry" />
        </mxCell>
        <mxCell id="7ImLv9Qj8_fC42LgSLlD-8" value="Export the data to powerBi" style="whiteSpace=wrap;html=1;rounded=1;" vertex="1" parent="1">
          <mxGeometry x="550" y="680" width="120" height="60" as="geometry" />
        </mxCell>
        <mxCell id="7ImLv9Qj8_fC42LgSLlD-15" style="edgeStyle=orthogonalEdgeStyle;rounded=0;orthogonalLoop=1;jettySize=auto;html=1;entryX=0;entryY=0.5;entryDx=0;entryDy=0;" edge="1" parent="1" source="7ImLv9Qj8_fC42LgSLlD-10" target="7ImLv9Qj8_fC42LgSLlD-12">
          <mxGeometry relative="1" as="geometry" />
        </mxCell>
        <mxCell id="7ImLv9Qj8_fC42LgSLlD-10" value="successful login" style="whiteSpace=wrap;html=1;rounded=1;" vertex="1" parent="1">
          <mxGeometry x="305" y="500" width="120" height="60" as="geometry" />
        </mxCell>
        <mxCell id="7ImLv9Qj8_fC42LgSLlD-16" value="" style="edgeStyle=orthogonalEdgeStyle;rounded=0;orthogonalLoop=1;jettySize=auto;html=1;entryX=0;entryY=0.75;entryDx=0;entryDy=0;" edge="1" parent="1" source="7ImLv9Qj8_fC42LgSLlD-12" target="7ImLv9Qj8_fC42LgSLlD-4">
          <mxGeometry relative="1" as="geometry">
            <Array as="points">
              <mxPoint x="250" y="580" />
              <mxPoint x="250" y="620" />
              <mxPoint x="510" y="620" />
              <mxPoint x="510" y="635" />
            </Array>
          </mxGeometry>
        </mxCell>
        <mxCell id="7ImLv9Qj8_fC42LgSLlD-12" value="User Request" style="whiteSpace=wrap;html=1;rounded=1;" vertex="1" parent="1">
          <mxGeometry x="70" y="550" width="120" height="60" as="geometry" />
        </mxCell>
      </root>
    </mxGraphModel>
  </diagram>
</mxfile>
